<svg width="44" height="44" fill="none" xmlns="http://www.w3.org/2000/svg"><path fill-rule="evenodd" clip-rule="evenodd" d="M21.854 44c12.07 0 21.854-9.85 21.854-22S33.923 0 21.854 0C9.784 0 0 9.85 0 22s9.784 22 21.854 22z" fill="#FFC715"/><mask id="a" maskUnits="userSpaceOnUse" x="28" y="21" width="11" height="11"><path d="M28.169 26.264c0 2.767 2.228 5.011 4.978 5.011 2.75 0 4.977-2.244 4.977-5.011 0-2.768-2.228-5.011-4.977-5.011-2.75 0-4.978 2.243-4.978 5.01z" fill="#fff"/></mask><g mask="url(#a)"><path fill-rule="evenodd" clip-rule="evenodd" d="M22.238 37.24h21.85V15.323h-21.85V37.24z" fill="#fff"/></g><mask id="b" maskUnits="userSpaceOnUse" x="4" y="21" width="11" height="11"><path d="M4.942 26.264c0 2.768 2.229 5.012 4.978 5.012 2.75 0 4.978-2.244 4.978-5.012 0-2.767-2.229-5.011-4.978-5.011-2.75 0-4.978 2.244-4.978 5.011z" fill="#fff"/></mask><g mask="url(#b)"><path fill-rule="evenodd" clip-rule="evenodd" d="M-.988 37.24h21.85V15.323H-.988V37.24z" fill="#fff"/></g><mask id="c" maskUnits="userSpaceOnUse" x="9" y="8" width="25" height="25"><path d="M9.39 20.654c0 6.767 5.449 12.252 12.17 12.252 6.722 0 12.171-5.485 12.171-12.252S28.282 8.402 21.561 8.402c-6.722 0-12.171 5.486-12.171 12.252z" fill="#fff"/></mask><g mask="url(#c)"><path fill-rule="evenodd" clip-rule="evenodd" d="M3.46 38.871h36.235v-36.4H3.459v36.4z" fill="#fff"/></g><mask id="d" maskUnits="userSpaceOnUse" x="26" y="19" width="4" height="5"><path d="M26.686 21.702c0 1.068.663 1.933 1.482 1.933.818 0 1.482-.865 1.482-1.933 0-1.066-.664-1.932-1.482-1.932-.819 0-1.482.866-1.482 1.932z" fill="#fff"/></mask><g mask="url(#d)"><path fill-rule="evenodd" clip-rule="evenodd" d="M20.756 29.6h14.857V13.84H20.756V29.6z" fill="#333"/></g><mask id="e" maskUnits="userSpaceOnUse" x="13" y="19" width="4" height="5"><path d="M13.837 21.702c0 1.068.664 1.933 1.482 1.933.819 0 1.482-.865 1.482-1.933 0-1.066-.663-1.932-1.482-1.932-.818 0-1.482.866-1.482 1.932z" fill="#fff"/></mask><g mask="url(#e)"><path fill-rule="evenodd" clip-rule="evenodd" d="M7.907 29.6h14.858V13.84H7.907V29.6z" fill="#333"/></g><mask id="f" maskUnits="userSpaceOnUse" x="9" y="23" width="24" height="13"><path d="M17.078 24.683c-1.274.907-2.082 1.814-3.134 1.307-3.152-1.518-5.276.896-3.29 4.828 1.988 3.931 5.413 4.69 8.085 4.207 2.673-.483 3.427-.413 5.345 0 1.919.414 5.892 0 7.673-3.517 1.782-3.518 1.097-6.553-1.918-5.794-3.015.758-4.11-2.414-8.29-2.483l-.136-.001c-1.991 0-3.313.726-4.335 1.453z" fill="#fff"/></mask><g mask="url(#f)"><path fill-rule="evenodd" clip-rule="evenodd" d="M3.953 41.121h34.74V17.299H3.953V41.12z" fill="#EF941B"/></g><mask id="g" maskUnits="userSpaceOnUse" x="24" y="27" width="3" height="2"><path d="M24.76 27.875c-.14.469.018.93.352 1.029.332.099.715-.202.855-.672.138-.47-.019-.93-.352-1.03a.466.466 0 00-.13-.018c-.297 0-.603.281-.725.69z" fill="#fff"/></mask><g mask="url(#g)"><path fill-rule="evenodd" clip-rule="evenodd" d="M17.296 32.876l3.885-13.106 12.61 3.738-3.884 13.107-12.61-3.739z" fill="#333"/></g><mask id="h" maskUnits="userSpaceOnUse" x="16" y="27" width="3" height="2"><path d="M17.204 27.203c-.333.098-.49.56-.351 1.029.14.47.522.77.855.672.334-.1.49-.56.352-1.03-.122-.41-.428-.69-.725-.69a.452.452 0 00-.13.019z" fill="#fff"/></mask><g mask="url(#h)"><path fill-rule="evenodd" clip-rule="evenodd" d="M21.506 19.77l3.884 13.106-12.61 3.739-3.885-13.107 12.61-3.738z" fill="#333"/></g><mask id="i" maskUnits="userSpaceOnUse" x="20" y="3" width="5" height="8"><path d="M20.262 8.689l1.504 1.801 1.164-1.791s-.111-3.119 1.33-5.24c-4.102 1.005-3.998 5.23-3.998 5.23z" fill="#fff"/></mask><g mask="url(#i)"><path fill-rule="evenodd" clip-rule="evenodd" d="M14.331 16.455h15.893V-2.471H14.331v18.926z" fill="#fff"/></g></svg>